<svg xmlns="http://www.w3.org/2000/svg" viewBox="0 0 24 24" fill="currentColor">
  <path d="M12 2C6.48 2 2 6.48 2 12s4.48 10 10 10 10-4.48 10-10S17.52 2 12 2zm0 3c1.66 0 3 1.34 3 3s-1.34 3-3 3-3-1.34-3-3 1.34-3 3-3zm0 14c-2.21 0-4-1.79-4-4v-1c0-.55.45-1 1-1h6c.55 0 1 .45 1 1v1c0 2.21-1.79 4-4 4z"/>
  <path d="M18.5 17.5c-.83 0-1.5.67-1.5 1.5s.67 1.5 1.5 1.5 1.5-.67 1.5-1.5-.67-1.5-1.5-1.5zM5 17.5c-.83 0-1.5.67-1.5 1.5s.67 1.5 1.5 1.5 1.5-.67 1.5-1.5-.67-1.5-1.5-1.5z"/>
  <path d="M7 13l4-4 4 4" fill="none" stroke="currentColor" stroke-width="2" stroke-linecap="round"/>
</svg>
