<svg viewBox="0 -1 20 20" xmlns="http://www.w3.org/2000/svg" fill="currentColor">
  <path d="M17.251 13.716c.393-.102 1.304-.265 1.691-.18.545.048.873.139.982.27.231.343-.115 1.544-.273 1.935-.139.344-.79 1.449-1.127 1.449-.103 0-.181-.075-.128-.215 1.237-2.88.684-2.804-1.145-2.647-.236.029-1.102.202-1 0 0-.239.761-.551 1-.612M8.633 8.478c0 .469.118.844.354 1.125.676.806 1.91.373 2.428-.576.285-.49.581-1.445.581-2.683-1 0-1.318.048-1.681.144-1.067.3-1.682.966-1.682 1.99M5.506 8.839c0-1.687.908-2.869 2.309-3.456 1.237-.522 2.944-.664 4.181-.738 0-1.484-.203-2.665-1.763-2.665-.501 0-1.396.555-1.6 1.481-.049.24-.17.412-.364.447L6.178 3.674c-.253-.06-.351-.199-.291-.439.422-2.185 2.258-3.12 4.346-3.236 1 0 2.512-.013 3.691 1.062 1.274 1.263 1.072 2.852 1.072 6.967 0 .988.015 1.083.691 1.962.136.202.148.394-.05.54-1.006.865-1.553 1.332-1.638 1.405-.146.108-.323.12-.529.035-.895-.76-.68-.714-1.237-1.404-1.129 1.218-2.016 1.549-3.527 1.549-1.796 0-3.2-1.111-3.2-3.276M.324 13.95c3.03 1.74 6.327 2.61 9.891 2.61 2.375 0 4.721-.439 7.036-1.315.351-.139.721-.409.936-.109.103.145.07.277-.1.396-2.243 1.604-5.369 2.466-8.091 2.466-3.851 0-7.277-1.415-9.89-3.744-.233-.191-.047-.465.218-.304"/>
</svg>
