<svg xmlns="http://www.w3.org/2000/svg" viewBox="0 0 24 24" fill="currentColor">
  <path d="M21.86 17.86q.14 0 .25.12.1.13.08.25-.27 1.61-1.27 2.96-.99 1.35-2.49 2.15-1.5.81-3.2.81-1.97 0-3.56-.66-1.6-.67-2.87-1.78l2.49-2.48q.65.6 1.46.95.81.34 1.71.34 1.34 0 2.39-.87 1.06-.86 1.06-2.31 0-.83-.29-1.53-.28-.7-.79-1.24-.52-.53-1.22-.86-.7-.33-1.51-.33-1.58 0-2.8 1.07-1.21 1.07-1.64 2.76l-5.69-2.86q.43-2.18 1.82-3.95 1.4-1.78 3.39-2.77 2-.99 4.27-.99 2.35 0 4.19.96 1.84.97 2.95 2.69 1.11 1.71 1.11 3.97 0 .97-.34 1.81z"/>
  <path d="M9.79 5.09q-1.38.57-2.46 1.56-1.09.99-1.77 2.27-.68 1.29-.68 2.74 0 1.37.54 2.49.54 1.11 1.47 1.93.93.82 2.13 1.26 1.21.44 2.56.44h.45l-1.56 2.04q-2.18-.26-3.97-1.3-1.79-1.03-2.87-2.71Q2.54 13.14 2.54 11q0-2.67 1.28-4.91Q5.1 3.86 7.35 2.59 9.59 1.32 12.26 1.32q2.83 0 5.14 1.31 2.3 1.32 3.7 3.6.49.78.87 1.62.39.85.62 1.74l-3.89 1.96q-.38-1.96-1.56-3.26-1.17-1.3-2.83-1.97-1.66-.66-3.52-.23z"/>
</svg>
