<svg xmlns="http://www.w3.org/2000/svg" style="display:none">
  <symbol id="3dmark" viewBox="0 0 48 48">
    <path d="M18 8 L18 16 C18 22 20 26 24 26 C28 26 30 22 30 16 L30 8 Z" fill="currentColor" opacity="0.3" stroke="currentColor" stroke-width="2.5" stroke-linejoin="round"/>
  <path d="M14 8 L34 8" stroke="currentColor" stroke-width="2.5" stroke-linecap="round"/>
  
  <path d="M18 10 Q12 10 12 16 Q12 20 16 20" stroke="currentColor" stroke-width="2" fill="none"/>
  <path d="M30 10 Q36 10 36 16 Q36 20 32 20" stroke="currentColor" stroke-width="2" fill="none"/>
  
  <rect x="20" y="26" width="8" height="8" fill="currentColor" opacity="0.4"/>
  <rect x="16" y="34" width="16" height="4" rx="2" fill="currentColor"/>
  
  <text x="24" y="19" font-family="Arial, sans-serif" font-size="10" font-weight="bold" fill="currentColor" text-anchor="middle">3D</text>
  </symbol>
  <symbol id="7zip" viewBox="0 0 48 48">
    <path d="M6 12 L6 40 C6 41.1 6.9 42 8 42 L40 42 C41.1 42 42 41.1 42 40 L42 16 C42 14.9 41.1 14 40 14 L20 14 L16 10 L8 10 C6.9 10 6 10.9 6 12 Z" fill="currentColor" opacity="0.2" stroke="currentColor" stroke-width="2.5" stroke-linejoin="round"/>
  
  <text x="24" y="32" font-family="Arial, sans-serif" font-size="18" font-weight="bold" fill="currentColor" text-anchor="middle">7z</text>
  </symbol>
  <symbol id="afterburner" viewBox="0 0 48 48">
    <path d="M8 32 Q8 16 24 16 Q40 16 40 32" stroke="currentColor" stroke-width="2.5" fill="none" stroke-linecap="round"/>
  <circle cx="24" cy="32" r="3" fill="currentColor"/>
  
  <path d="M24 32 L34 20" stroke="currentColor" stroke-width="2.5" stroke-linecap="round"/>
  
  <path d="M10 32 L12 28" stroke="currentColor" stroke-width="2"/>
  <path d="M16 22 L18 20" stroke="currentColor" stroke-width="2"/>
  <path d="M24 16 L24 18" stroke="currentColor" stroke-width="2"/>
  <path d="M32 22 L30 20" stroke="currentColor" stroke-width="2"/>
  <path d="M38 32 L36 28" stroke="currentColor" stroke-width="2"/>
  
  <path d="M24 6 Q28 2 26 8 Q24 6 26 12" fill="currentColor" opacity="0.5"/>
  </symbol>
  <symbol id="amazon" viewBox="0 0 24 24">
    <path d="M12 2C6.48 2 2 6.48 2 12s4.48 10 10 10 10-4.48 10-10S17.52 2 12 2zm0 3c1.66 0 3 1.34 3 3s-1.34 3-3 3-3-1.34-3-3 1.34-3 3-3zm0 14c-2.21 0-4-1.79-4-4v-1c0-.55.45-1 1-1h6c.55 0 1 .45 1 1v1c0 2.21-1.79 4-4 4z"/>
  <path d="M18.5 17.5c-.83 0-1.5.67-1.5 1.5s.67 1.5 1.5 1.5 1.5-.67 1.5-1.5-.67-1.5-1.5-1.5zM5 17.5c-.83 0-1.5.67-1.5 1.5s.67 1.5 1.5 1.5 1.5-.67 1.5-1.5-.67-1.5-1.5-1.5z"/>
  <path d="M7 13l4-4 4 4" fill="none" stroke="currentColor" stroke-width="2" stroke-linecap="round"/>
  </symbol>
  <symbol id="autohotkey" viewBox="0 0 48 48">
    <rect x="6" y="12" width="36" height="24" rx="4" stroke="currentColor" stroke-width="2.5" fill="currentColor" opacity="0.2"/>
  
  <rect x="10" y="16" width="6" height="6" rx="1" stroke="currentColor" stroke-width="1.5" fill="none"/>
  <rect x="18" y="16" width="6" height="6" rx="1" stroke="currentColor" stroke-width="1.5" fill="none"/>
  <rect x="26" y="16" width="6" height="6" rx="1" stroke="currentColor" stroke-width="1.5" fill="none"/>
  <rect x="34" y="16" width="6" height="6" rx="1" stroke="currentColor" stroke-width="1.5" fill="none"/>
  
  <text x="24" y="32" font-family="monospace" font-size="10" font-weight="bold" fill="currentColor" text-anchor="middle">AHK</text>
  
  <path d="M38 6 L40 10 L38 14" stroke="currentColor" stroke-width="2" stroke-linecap="round" fill="none" opacity="0.7"/>
  </symbol>
  <symbol id="bcuninstaller" viewBox="0 0 24 24">
    <path d="M6 19c0 1.1.9 2 2 2h8c1.1 0 2-.9 2-2V7H6v12zM8 9h8v10H8V9z"/>
  <path d="M15.5 4l-1-1h-5l-1 1H5v2h14V4h-3.5z"/>
  <path d="M10 11v6M14 11v6" stroke="currentColor" stroke-width="1.5"/>
  </symbol>
  <symbol id="bulk-rename" viewBox="0 0 48 48">
    <rect x="8" y="12" width="20" height="28" rx="2" stroke="currentColor" stroke-width="2.5" fill="none"/>
  <path d="M12 18 L24 18" stroke="currentColor" stroke-width="2" stroke-linecap="round"/>
  <path d="M12 24 L24 24" stroke="currentColor" stroke-width="2" stroke-linecap="round"/>
  <path d="M12 30 L20 30" stroke="currentColor" stroke-width="2" stroke-linecap="round"/>
  
  <path d="M32 6 L42 16 L30 28 L20 26 L22 16 Z" fill="currentColor" stroke="currentColor" stroke-width="2" stroke-linejoin="round"/>
  <path d="M38 10 L38 10" stroke="white" stroke-width="1.5"/>
  </symbol>
  <symbol id="capframex" viewBox="0 0 24 24">
    <rect x="2" y="4" width="20" height="16" rx="2" fill="none" stroke="currentColor" stroke-width="2"/>
  <polyline points="6 14 9 10 12 12 15 8 18 11" fill="none" stroke="currentColor" stroke-width="2" stroke-linecap="round" stroke-linejoin="round"/>
  <circle cx="6" cy="14" r="1.5"/>
  <circle cx="9" cy="10" r="1.5"/>
  <circle cx="12" cy="12" r="1.5"/>
  <circle cx="15" cy="8" r="1.5"/>
  <circle cx="18" cy="11" r="1.5"/>
  </symbol>
  <symbol id="cinebench" viewBox="0 0 48 48">
    <rect x="8" y="16" width="32" height="20" rx="2" stroke="currentColor" stroke-width="2.5" fill="currentColor" opacity="0.2"/>
  
  <rect x="8" y="10" width="32" height="6" rx="2 2 0 0" fill="currentColor" opacity="0.4" stroke="currentColor" stroke-width="2.5"/>
  <path d="M12 10 L12 16" stroke="currentColor" stroke-width="2"/>
  <path d="M20 10 L20 16" stroke="currentColor" stroke-width="2"/>
  <path d="M28 10 L28 16" stroke="currentColor" stroke-width="2"/>
  <path d="M36 10 L36 16" stroke="currentColor" stroke-width="2"/>
  
  <text x="24" y="28" font-family="monospace" font-size="10" font-weight="bold" fill="currentColor" text-anchor="middle">R24</text>
  
  <rect x="16" y="32" width="4" height="6" rx="1" fill="currentColor" opacity="0.5"/>
  <rect x="22" y="30" width="4" height="8" rx="1" fill="currentColor" opacity="0.7"/>
  <rect x="28" y="28" width="4" height="10" rx="1" fill="currentColor" opacity="0.9"/>
  </symbol>
  <symbol id="coretemp" viewBox="0 0 48 48">
    <rect x="20" y="6" width="8" height="24" rx="4" stroke="currentColor" stroke-width="2.5" fill="none"/>
  <circle cx="24" cy="36" r="6" fill="currentColor" stroke="currentColor" stroke-width="2.5"/>
  <path d="M24 30 L24 12" stroke="currentColor" stroke-width="3" stroke-linecap="round"/>
  
  <path d="M28 12 L30 12" stroke="currentColor" stroke-width="2"/>
  <path d="M28 16 L30 16" stroke="currentColor" stroke-width="2"/>
  <path d="M28 20 L30 20" stroke="currentColor" stroke-width="2"/>
  <path d="M28 24 L30 24" stroke="currentColor" stroke-width="2"/>
  </symbol>
  <symbol id="cpuz" viewBox="0 0 48 48">
    <rect x="12" y="12" width="24" height="24" rx="2" stroke="currentColor" stroke-width="2.5" fill="currentColor" opacity="0.2"/>
  
  <path d="M8 16 L12 16" stroke="currentColor" stroke-width="2"/>
  <path d="M8 24 L12 24" stroke="currentColor" stroke-width="2"/>
  <path d="M8 32 L12 32" stroke="currentColor" stroke-width="2"/>
  <path d="M36 16 L40 16" stroke="currentColor" stroke-width="2"/>
  <path d="M36 24 L40 24" stroke="currentColor" stroke-width="2"/>
  <path d="M36 32 L40 32" stroke="currentColor" stroke-width="2"/>
  <path d="M16 8 L16 12" stroke="currentColor" stroke-width="2"/>
  <path d="M24 8 L24 12" stroke="currentColor" stroke-width="2"/>
  <path d="M32 8 L32 12" stroke="currentColor" stroke-width="2"/>
  <path d="M16 36 L16 40" stroke="currentColor" stroke-width="2"/>
  <path d="M24 36 L24 40" stroke="currentColor" stroke-width="2"/>
  <path d="M32 36 L32 40" stroke="currentColor" stroke-width="2"/>
  
  <path d="M18 20 L30 20 L18 28 L30 28" stroke="currentColor" stroke-width="2.5" stroke-linecap="round" stroke-linejoin="round"/>
  </symbol>
  <symbol id="crystaldiskinfo" viewBox="0 0 48 48">
    <circle cx="24" cy="24" r="18" stroke="currentColor" stroke-width="2.5" fill="none"/>
  <path d="M24 6 L34 16 L24 26 L14 16 Z" fill="currentColor" opacity="0.3" stroke="currentColor" stroke-width="2" stroke-linejoin="round"/>
  <path d="M24 6 L24 26" stroke="currentColor" stroke-width="1.5"/>
  <path d="M14 16 L34 16" stroke="currentColor" stroke-width="1.5"/>
  
  <circle cx="24" cy="34" r="2" fill="currentColor"/>
  </symbol>
  <symbol id="crystaldiskmark" viewBox="0 0 48 48">
    <circle cx="24" cy="24" r="18" stroke="currentColor" stroke-width="2.5" fill="none"/>
  <path d="M24 6 L34 16 L24 26 L14 16 Z" fill="currentColor" opacity="0.3" stroke="currentColor" stroke-width="2" stroke-linejoin="round"/>
  
  <rect x="10" y="32" width="8" height="4" rx="1" fill="currentColor" opacity="0.5"/>
  <rect x="20" y="28" width="8" height="8" rx="1" fill="currentColor" opacity="0.7"/>
  <rect x="30" y="24" width="8" height="12" rx="1" fill="currentColor"/>
  </symbol>
  <symbol id="ddu" viewBox="0 0 48 48">
    <rect x="6" y="18" width="24" height="16" rx="2" stroke="currentColor" stroke-width="2" fill="currentColor" opacity="0.3"/>
  
  <path d="M32 14 L42 14 L42 40 C42 41 41 42 40 42 L34 42 C33 42 32 41 32 40 Z" stroke="currentColor" stroke-width="2.5" fill="none"/>
  <path d="M30 14 L44 14" stroke="currentColor" stroke-width="2.5"/>
  <rect x="34" y="10" width="8" height="4" rx="1" fill="currentColor"/>
  
  <path d="M14 22 L22 30 M22 22 L14 30" stroke="currentColor" stroke-width="2.5" stroke-linecap="round"/>
  </symbol>
  <symbol id="directx" viewBox="0 0 48 48">
    <path d="M4 24 L24 4 L44 24 L24 44 Z" fill="currentColor" opacity="0.2" stroke="currentColor" stroke-width="2.5" stroke-linejoin="round"/>
  <path d="M14 24 L24 14 L34 24 L24 34 Z" fill="currentColor" opacity="0.4"/>
  
  <path d="M18 18 L30 30 M30 18 L18 30" stroke="currentColor" stroke-width="3" stroke-linecap="round"/>
  </symbol>
  <symbol id="ditto" viewBox="0 0 48 48">
    <rect x="8" y="12" width="24" height="30" rx="2" stroke="currentColor" stroke-width="2.5" fill="currentColor" opacity="0.2"/>
  <rect x="8" y="8" width="6" height="6" rx="1" fill="currentColor"/>
  <rect x="16" y="8" width="24" height="30" rx="2" stroke="currentColor" stroke-width="2.5" fill="none"/>
  <rect x="24" y="4" width="6" height="6" rx="1" fill="currentColor"/>
  <path d="M22 18 L34 18" stroke="currentColor" stroke-width="2" stroke-linecap="round"/>
  <path d="M22 24 L34 24" stroke="currentColor" stroke-width="2" stroke-linecap="round"/>
  <path d="M22 30 L30 30" stroke="currentColor" stroke-width="2" stroke-linecap="round"/>
  </symbol>
  <symbol id="eartrumpet" viewBox="0 0 48 48">
    <path d="M12 18 L12 30 L20 30 L32 40 L32 8 L20 18 Z" fill="currentColor" stroke="currentColor" stroke-width="2.5" stroke-linejoin="round"/>
  
  <path d="M38 16 Q42 20 42 24 Q42 28 38 32" stroke="currentColor" stroke-width="2.5" stroke-linecap="round" fill="none"/>
  <path d="M36 20 Q38 22 38 24 Q38 26 36 28" stroke="currentColor" stroke-width="2.5" stroke-linecap="round" fill="none"/>
  </symbol>
  <symbol id="edge" viewBox="0 0 24 24">
    <path d="M21.86 17.86q.14 0 .25.12.1.13.08.25-.27 1.61-1.27 2.96-.99 1.35-2.49 2.15-1.5.81-3.2.81-1.97 0-3.56-.66-1.6-.67-2.87-1.78l2.49-2.48q.65.6 1.46.95.81.34 1.71.34 1.34 0 2.39-.87 1.06-.86 1.06-2.31 0-.83-.29-1.53-.28-.7-.79-1.24-.52-.53-1.22-.86-.7-.33-1.51-.33-1.58 0-2.8 1.07-1.21 1.07-1.64 2.76l-5.69-2.86q.43-2.18 1.82-3.95 1.4-1.78 3.39-2.77 2-.99 4.27-.99 2.35 0 4.19.96 1.84.97 2.95 2.69 1.11 1.71 1.11 3.97 0 .97-.34 1.81z"/>
  <path d="M9.79 5.09q-1.38.57-2.46 1.56-1.09.99-1.77 2.27-.68 1.29-.68 2.74 0 1.37.54 2.49.54 1.11 1.47 1.93.93.82 2.13 1.26 1.21.44 2.56.44h.45l-1.56 2.04q-2.18-.26-3.97-1.3-1.79-1.03-2.87-2.71Q2.54 13.14 2.54 11q0-2.67 1.28-4.91Q5.1 3.86 7.35 2.59 9.59 1.32 12.26 1.32q2.83 0 5.14 1.31 2.3 1.32 3.7 3.6.49.78.87 1.62.39.85.62 1.74l-3.89 1.96q-.38-1.96-1.56-3.26-1.17-1.3-2.83-1.97-1.66-.66-3.52-.23z"/>
  </symbol>
  <symbol id="everything" viewBox="0 0 48 48">
    <circle cx="20" cy="20" r="12" stroke="currentColor" stroke-width="2.5" fill="none"/>
  <path d="M29 29 L42 42" stroke="currentColor" stroke-width="2.5" stroke-linecap="round"/>
  
  <path d="M20 12 L18 20 L22 20 L20 28" stroke="currentColor" stroke-width="2" stroke-linecap="round" stroke-linejoin="round"/>
  </symbol>
  <symbol id="fallback" viewBox="0 0 48 48">
    <path d="M24 4L4 14v20l20 10 20-10V14L24 4z" stroke="currentColor" stroke-width="2.5" fill="none"/>
  <path d="M4 14l20 10 20-10" stroke="currentColor" stroke-width="2" opacity="0.5"/>
  <path d="M24 24v20" stroke="currentColor" stroke-width="2" opacity="0.5"/>
  <circle cx="24" cy="24" r="4" stroke="currentColor" stroke-width="2" fill="none"/>
  </symbol>
  <symbol id="fancontrol" viewBox="0 0 24 24">
    <circle cx="12" cy="12" r="3"/>
  <path d="M12 2c-1.5 0-3 2-3 4s1.5 3 3 3 3-1 3-3-1.5-4-3-4z"/>
  <path d="M12 15c-1.5 0-3 1-3 3s1.5 4 3 4 3-2 3-4-1.5-3-3-3z" transform="rotate(180 12 12)"/>
  <path d="M12 2c-1.5 0-3 2-3 4s1.5 3 3 3 3-1 3-3-1.5-4-3-4z" transform="rotate(90 12 12)"/>
  <path d="M12 2c-1.5 0-3 2-3 4s1.5 3 3 3 3-1 3-3-1.5-4-3-4z" transform="rotate(-90 12 12)"/>
  </symbol>
  <symbol id="flameshot" viewBox="0 0 48 48">
    <rect x="8" y="14" width="32" height="24" rx="4" stroke="currentColor" stroke-width="2.5" fill="none"/>
  <circle cx="24" cy="26" r="7" stroke="currentColor" stroke-width="2.5" fill="none"/>
  <circle cx="24" cy="26" r="3" fill="currentColor"/>
  <rect x="18" y="10" width="12" height="4" rx="2" fill="currentColor"/>
  <circle cx="36" cy="20" r="2" fill="currentColor"/>
  
  <path d="M38 10 Q40 6 38 2 Q36 4 38 8 Z" fill="currentColor" opacity="0.6"/>
  </symbol>
  <symbol id="flux" viewBox="0 0 48 48">
    <circle cx="24" cy="24" r="12" fill="currentColor" opacity="0.3"/>
  <circle cx="24" cy="24" r="8" fill="currentColor"/>
  
  <path d="M24 6 L24 2" stroke="currentColor" stroke-width="2.5" stroke-linecap="round"/>
  <path d="M24 46 L24 42" stroke="currentColor" stroke-width="2.5" stroke-linecap="round"/>
  <path d="M42 24 L46 24" stroke="currentColor" stroke-width="2.5" stroke-linecap="round"/>
  <path d="M2 24 L6 24" stroke="currentColor" stroke-width="2.5" stroke-linecap="round"/>
  <path d="M37.5 10.5 L40.5 7.5" stroke="currentColor" stroke-width="2.5" stroke-linecap="round"/>
  <path d="M7.5 40.5 L10.5 37.5" stroke="currentColor" stroke-width="2.5" stroke-linecap="round"/>
  <path d="M37.5 37.5 L40.5 40.5" stroke="currentColor" stroke-width="2.5" stroke-linecap="round"/>
  <path d="M7.5 7.5 L10.5 10.5" stroke="currentColor" stroke-width="2.5" stroke-linecap="round"/>
  </symbol>
  <symbol id="foobar2000" viewBox="0 0 48 48">
    <rect x="6" y="28" width="6" height="14" rx="1" fill="currentColor" opacity="0.5"/>
  <rect x="14" y="20" width="6" height="22" rx="1" fill="currentColor" opacity="0.6"/>
  <rect x="22" y="12" width="6" height="30" rx="1" fill="currentColor" opacity="0.8"/>
  <rect x="30" y="18" width="6" height="24" rx="1" fill="currentColor" opacity="0.7"/>
  <rect x="38" y="24" width="6" height="18" rx="1" fill="currentColor" opacity="0.6"/>
  
  <text x="24" y="10" font-family="monospace" font-size="8" font-weight="bold" fill="currentColor" text-anchor="middle" opacity="0.8">fb2k</text>
  </symbol>
  <symbol id="fpsmonitor" viewBox="0 0 48 48">
    <rect x="6" y="10" width="36" height="24" rx="2" stroke="currentColor" stroke-width="2.5" fill="none"/>
  <rect x="16" y="34" width="16" height="2" fill="currentColor"/>
  <path d="M24 34 L24 38" stroke="currentColor" stroke-width="2"/>
  
  <text x="24" y="26" font-family="monospace" font-size="12" font-weight="bold" fill="currentColor" text-anchor="middle">144</text>
  
  <path d="M10 28 L14 22 L18 24 L22 18 L26 20 L30 16 L34 18 L38 20" stroke="currentColor" stroke-width="2" fill="none" opacity="0.5"/>
  </symbol>
  <symbol id="furmark" viewBox="0 0 48 48">
    <circle cx="24" cy="24" r="16" fill="currentColor" opacity="0.3" stroke="currentColor" stroke-width="2.5"/>
  <circle cx="24" cy="24" r="8" fill="none" stroke="currentColor" stroke-width="2.5"/>
  
  <path d="M24 8 L26 12 L24 16" stroke="currentColor" stroke-width="1.5" opacity="0.6"/>
  <path d="M36 16 L38 18 L36 22" stroke="currentColor" stroke-width="1.5" opacity="0.6"/>
  <path d="M40 24 L42 26 L40 28" stroke="currentColor" stroke-width="1.5" opacity="0.6"/>
  <path d="M36 32 L38 34 L36 36" stroke="currentColor" stroke-width="1.5" opacity="0.6"/>
  <path d="M24 40 L26 38 L24 36" stroke="currentColor" stroke-width="1.5" opacity="0.6"/>
  <path d="M12 32 L10 34 L12 36" stroke="currentColor" stroke-width="1.5" opacity="0.6"/>
  <path d="M8 24 L6 26 L8 28" stroke="currentColor" stroke-width="1.5" opacity="0.6"/>
  <path d="M12 16 L10 18 L12 20" stroke="currentColor" stroke-width="1.5" opacity="0.6"/>
  
  <circle cx="24" cy="24" r="3" fill="#ff4444" opacity="0.8"/>
  </symbol>
  <symbol id="geekbench" viewBox="0 0 48 48">
    <path d="M16 6 L16 20 L10 36 C8 40 10 42 14 42 L34 42 C38 42 40 40 38 36 L32 20 L32 6 Z" fill="currentColor" opacity="0.2" stroke="currentColor" stroke-width="2.5" stroke-linejoin="round"/>
  <path d="M14 6 L34 6" stroke="currentColor" stroke-width="2.5" stroke-linecap="round"/>
  
  <path d="M12 30 L20 30" stroke="currentColor" stroke-width="1.5"/>
  <path d="M14 34 L22 34" stroke="currentColor" stroke-width="1.5"/>
  
  <circle cx="20" cy="32" r="2" fill="currentColor" opacity="0.5"/>
  <circle cx="26" cy="28" r="2.5" fill="currentColor" opacity="0.5"/>
  <circle cx="28" cy="35" r="1.5" fill="currentColor" opacity="0.5"/>
  </symbol>
  <symbol id="gpuz" viewBox="0 0 48 48">
    <rect x="6" y="14" width="36" height="24" rx="2" stroke="currentColor" stroke-width="2.5" fill="currentColor" opacity="0.2"/>
  
  <circle cx="16" cy="26" r="6" stroke="currentColor" stroke-width="2" fill="none"/>
  <path d="M16 20 L16 32 M10 26 L22 26" stroke="currentColor" stroke-width="1.5"/>
  
  <path d="M28 18 L28 34" stroke="currentColor" stroke-width="2"/>
  <path d="M32 18 L32 34" stroke="currentColor" stroke-width="2"/>
  <path d="M36 18 L36 34" stroke="currentColor" stroke-width="2"/>
  
  <rect x="38" y="8" width="4" height="8" fill="currentColor"/>
  
  <path d="M28 24 L36 24 L28 30 L36 30" stroke="currentColor" stroke-width="2" stroke-linecap="round" stroke-linejoin="round"/>
  </symbol>
  <symbol id="handbrake" viewBox="0 0 24 24">
    <circle cx="12" cy="12" r="10" fill="none" stroke="currentColor" stroke-width="2"/>
  <circle cx="12" cy="12" r="6" fill="none" stroke="currentColor" stroke-width="2"/>
  <circle cx="12" cy="12" r="2"/>
  <path d="M12 2v4M12 18v4M2 12h4M18 12h4" stroke="currentColor" stroke-width="1.5" stroke-linecap="round"/>
  <path d="M4.93 4.93l2.83 2.83M16.24 16.24l2.83 2.83M4.93 19.07l2.83-2.83M16.24 7.76l2.83-2.83" stroke="currentColor" stroke-width="1" stroke-linecap="round"/>
  </symbol>
  <symbol id="heroic" viewBox="0 0 24 24">
    <path d="M12 2L4 6v12l8 4 8-4V6l-8-4zm0 2.18l6 3v9.64l-6 3-6-3V7.18l6-3zm-1 4.32v7l-3.5-1.75V9.25L11 8.5zm2 0l3.5 1.75v4.5L13 15.5v-7z"/>
  </symbol>
  <symbol id="hwinfo" viewBox="0 0 48 48">
    <rect x="8" y="8" width="32" height="32" rx="4" stroke="currentColor" stroke-width="2.5" fill="none"/>
  <rect x="16" y="16" width="16" height="16" rx="2" fill="currentColor" opacity="0.3"/>
  
  <path d="M4 14 L8 14" stroke="currentColor" stroke-width="2"/>
  <path d="M4 20 L8 20" stroke="currentColor" stroke-width="2"/>
  <path d="M4 26 L8 26" stroke="currentColor" stroke-width="2"/>
  <path d="M4 34 L8 34" stroke="currentColor" stroke-width="2"/>
  <path d="M40 14 L44 14" stroke="currentColor" stroke-width="2"/>
  <path d="M40 20 L44 20" stroke="currentColor" stroke-width="2"/>
  <path d="M40 26 L44 26" stroke="currentColor" stroke-width="2"/>
  <path d="M40 34 L44 34" stroke="currentColor" stroke-width="2"/>
  
  <circle cx="24" cy="21" r="1.5" fill="currentColor"/>
  <path d="M24 25 L24 31" stroke="currentColor" stroke-width="2.5" stroke-linecap="round"/>
  </symbol>
  <symbol id="imageglass" viewBox="0 0 48 48">
    <rect x="4" y="8" width="40" height="32" rx="2" stroke="currentColor" stroke-width="2.5" fill="none"/>
  <circle cx="15" cy="18" r="4" fill="currentColor"/>
  <path d="M4 32 L14 22 L22 30 L30 20 L44 32" fill="currentColor" opacity="0.3"/>
  <path d="M4 32 L14 22 L22 30 L30 20 L44 32" stroke="currentColor" stroke-width="2.5" stroke-linejoin="round" fill="none"/>
  </symbol>
  <symbol id="java" viewBox="0 0 48 48">
    <path d="M10 18 L10 32 C10 36 14 40 18 40 L30 40 C34 40 38 36 38 32 L38 18 Z" fill="currentColor" opacity="0.3" stroke="currentColor" stroke-width="2.5" stroke-linejoin="round"/>
  <path d="M8 18 L40 18" stroke="currentColor" stroke-width="2.5" stroke-linecap="round"/>
  
  <path d="M38 22 Q44 24 44 28 Q44 32 38 34" stroke="currentColor" stroke-width="2.5" fill="none" stroke-linecap="round"/>
  
  <path d="M16 12 Q14 8 16 6" stroke="currentColor" stroke-width="2" fill="none" stroke-linecap="round"/>
  <path d="M24 14 Q22 10 24 6" stroke="currentColor" stroke-width="2" fill="none" stroke-linecap="round"/>
  <path d="M32 12 Q30 8 32 6" stroke="currentColor" stroke-width="2" fill="none" stroke-linecap="round"/>
  </symbol>
  <symbol id="latencymon" viewBox="0 0 24 24">
    <circle cx="12" cy="12" r="10" fill="none" stroke="currentColor" stroke-width="2"/>
  <circle cx="12" cy="12" r="3"/>
  <path d="M12 5v4M12 15v4M5 12h4M15 12h4" stroke="currentColor" stroke-width="2" stroke-linecap="round"/>
  <path d="M12 12l4-4" stroke="currentColor" stroke-width="2" stroke-linecap="round"/>
  </symbol>
  <symbol id="librehardwaremonitor" viewBox="0 0 24 24">
    <rect x="4" y="4" width="16" height="16" rx="2" fill="none" stroke="currentColor" stroke-width="2"/>
  <rect x="7" y="7" width="4" height="4" rx="0.5"/>
  <rect x="13" y="7" width="4" height="4" rx="0.5"/>
  <rect x="7" y="13" width="4" height="4" rx="0.5"/>
  <rect x="13" y="13" width="4" height="4" rx="0.5"/>
  <path d="M2 9h2M2 15h2M20 9h2M20 15h2M9 2v2M15 2v2M9 20v2M15 20v2" stroke="currentColor" stroke-width="1.5" stroke-linecap="round"/>
  </symbol>
  <symbol id="librewolf" viewBox="0 0 24 24">
    <path d="M12 2C6.48 2 2 6.48 2 12s4.48 10 10 10 10-4.48 10-10S17.52 2 12 2zm0 18c-4.41 0-8-3.59-8-8s3.59-8 8-8 8 3.59 8 8-3.59 8-8 8z"/>
  <path d="M12 6c-3.31 0-6 2.69-6 6s2.69 6 6 6c1.66 0 3.16-.67 4.24-1.76l-1.41-1.41C14.06 15.6 13.1 16 12 16c-2.21 0-4-1.79-4-4s1.79-4 4-4c1.1 0 2.06.4 2.83 1.17l1.41-1.41C15.16 6.67 13.66 6 12 6z"/>
  <circle cx="12" cy="12" r="2"/>
  </symbol>
  <symbol id="lively" viewBox="0 0 24 24">
    <rect x="3" y="3" width="18" height="14" rx="2" fill="none" stroke="currentColor" stroke-width="2"/>
  <path d="M8 21h8M12 17v4" stroke="currentColor" stroke-width="2" stroke-linecap="round"/>
  <path d="M7 8l4 4-4 4M12 14h5" stroke="currentColor" stroke-width="1.5" stroke-linecap="round" stroke-linejoin="round"/>
  </symbol>
  <symbol id="logitech" viewBox="0 0 24 24">
    <circle cx="12" cy="12" r="10" fill="none" stroke="currentColor" stroke-width="2"/>
  <circle cx="12" cy="12" r="4"/>
  <path d="M12 4v2M12 18v2M4 12h2M18 12h2" stroke="currentColor" stroke-width="2" stroke-linecap="round"/>
  </symbol>
  <symbol id="medal" viewBox="0 0 48 48">
    <circle cx="24" cy="28" r="12" fill="currentColor" stroke="currentColor" stroke-width="2.5"/>
  <circle cx="24" cy="28" r="8" fill="none" stroke="white" stroke-width="2"/>
  
  <path d="M18 20 L12 6 L18 8 L24 4 L30 8 L36 6 L30 20" fill="currentColor" opacity="0.6" stroke="currentColor" stroke-width="2" stroke-linejoin="round"/>
  
  <path d="M22 26 L22 30 L28 28 Z" fill="white"/>
  </symbol>
  <symbol id="moonlight" viewBox="0 0 48 48">
    <path d="M24 4 C15 4 8 11 8 20 C8 29 15 36 24 36 C22 36 20 34.5 20 28 C20 21.5 22 4 24 4 Z" fill="currentColor"/>
  <circle cx="24" cy="20" r="16" stroke="currentColor" stroke-width="2.5" fill="none"/>
  <path d="M32 12 C28 16 28 24 32 28" stroke="currentColor" stroke-width="2.5" stroke-linecap="round" fill="none" opacity="0.5"/>
  </symbol>
  <symbol id="mpchc" viewBox="0 0 48 48">
    <circle cx="24" cy="24" r="18" fill="currentColor" stroke="currentColor" stroke-width="2.5"/>
  <circle cx="24" cy="24" r="14" fill="none" stroke="currentColor" stroke-width="1" opacity="0.3"/>
  
  <path d="M20 16 L20 32 L34 24 Z" fill="white"/>
  </symbol>
  <symbol id="musicbee" viewBox="0 0 48 48">
    <ellipse cx="24" cy="26" rx="10" ry="12" fill="currentColor"/>
  <circle cx="24" cy="20" r="8" fill="currentColor"/>
  
  <path d="M16 24 Q24 22 32 24" stroke="black" stroke-width="2.5" opacity="0.3"/>
  <path d="M16 28 Q24 26 32 28" stroke="black" stroke-width="2.5" opacity="0.3"/>
  
  <ellipse cx="14" cy="20" rx="6" ry="10" fill="currentColor" opacity="0.4" transform="rotate(-30 14 20)"/>
  <ellipse cx="34" cy="20" rx="6" ry="10" fill="currentColor" opacity="0.4" transform="rotate(30 34 20)"/>
  
  <circle cx="36" cy="10" r="2.5" fill="currentColor"/>
  <path d="M36 10 L36 2 L40 2" stroke="currentColor" stroke-width="2"/>
  </symbol>
  <symbol id="notepadplusplus" viewBox="0 0 48 48">
    <rect x="8" y="6" width="32" height="38" rx="2" stroke="currentColor" stroke-width="2.5" fill="currentColor" opacity="0.1"/>
  
  <path d="M14 14 L34 14" stroke="currentColor" stroke-width="2" opacity="0.3"/>
  <path d="M14 20 L34 20" stroke="currentColor" stroke-width="2" opacity="0.3"/>
  <path d="M14 26 L28 26" stroke="currentColor" stroke-width="2" opacity="0.3"/>
  
  <path d="M30 32 Q34 28 38 32 Q40 36 36 38" stroke="currentColor" stroke-width="2.5" fill="none" stroke-linecap="round" opacity="0.8"/>
  
  <g transform="translate(36, 12)">
    <path d="M-2 0 L2 0 M0 -2 L0 2" stroke="currentColor" stroke-width="2" stroke-linecap="round"/>
  </g>
  <g transform="translate(42, 16)">
    <path d="M-2 0 L2 0 M0 -2 L0 2" stroke="currentColor" stroke-width="2" stroke-linecap="round"/>
  </g>
  </symbol>
  <symbol id="nvcleanstall" viewBox="0 0 48 48">
    <path d="M8 24 Q12 12 24 12 Q36 12 40 24 Q36 36 24 36 Q12 36 8 24 Z" fill="currentColor" opacity="0.2" stroke="currentColor" stroke-width="2.5"/>
  <circle cx="24" cy="24" r="6" fill="currentColor"/>
  
  <path d="M38 10 L40 14 L44 12 L42 16 L46 18 L42 20 L44 24 L40 22 L38 26 L36 22 L32 24 L34 20 L30 18 L34 16 L32 12 L36 14 Z" fill="currentColor" opacity="0.6"/>
  </symbol>
  <symbol id="occt" viewBox="0 0 24 24">
    <path d="M12 2L4 6v12l8 4 8-4V6l-8-4zm0 2.18l6 3v9.64l-6 3-6-3V7.18l6-3z"/>
  <path d="M12 7l-4 2v6l4 2 4-2V9l-4-2zm0 2l2 1v4l-2 1-2-1v-4l2-1z"/>
  <circle cx="12" cy="12" r="1.5"/>
  </symbol>
  <symbol id="openhardwaremonitor" viewBox="0 0 48 48">
    <rect x="8" y="8" width="32" height="32" rx="4" stroke="currentColor" stroke-width="2.5" fill="none"/>
  <rect x="16" y="16" width="16" height="16" rx="2" stroke="currentColor" stroke-width="2" fill="currentColor" opacity="0.2"/>
  
  <path d="M28 20 C28 18 26 16 24 16 C22 16 20 18 20 20" stroke="currentColor" stroke-width="2" fill="none" stroke-linecap="round"/>
  <rect x="20" y="22" width="8" height="6" rx="1" fill="currentColor" opacity="0.6"/>
  </symbol>
  <symbol id="openrgb" viewBox="0 0 48 48">
    <circle cx="24" cy="24" r="16" stroke="currentColor" stroke-width="2.5" fill="none"/>
  
  <path d="M24 8 A16 16 0 0 1 37.9 18" stroke="#ff4444" stroke-width="4" fill="none" opacity="0.7"/>
  <path d="M37.9 18 A16 16 0 0 1 37.9 30" stroke="#44ff44" stroke-width="4" fill="none" opacity="0.7"/>
  <path d="M37.9 30 A16 16 0 0 1 24 40" stroke="#4444ff" stroke-width="4" fill="none" opacity="0.7"/>
  <path d="M24 40 A16 16 0 0 1 10.1 30" stroke="#ffff44" stroke-width="4" fill="none" opacity="0.7"/>
  <path d="M10.1 30 A16 16 0 0 1 10.1 18" stroke="#ff44ff" stroke-width="4" fill="none" opacity="0.7"/>
  <path d="M10.1 18 A16 16 0 0 1 24 8" stroke="#44ffff" stroke-width="4" fill="none" opacity="0.7"/>
  
  <circle cx="24" cy="24" r="6" fill="currentColor"/>
  </symbol>
  <symbol id="parsec" viewBox="0 0 48 48">
    <rect x="8" y="12" width="32" height="24" rx="3" stroke="currentColor" stroke-width="2.5" fill="none"/>
  <circle cx="24" cy="24" r="6" stroke="currentColor" stroke-width="2.5" fill="none"/>
  <circle cx="24" cy="24" r="2" fill="currentColor"/>
  <path d="M4 20h4M4 28h4M40 20h4M40 28h4" stroke="currentColor" stroke-width="2" stroke-linecap="round"/>
  </symbol>
  <symbol id="peazip" viewBox="0 0 48 48">
    <path d="M20 4 L20 44" stroke="currentColor" stroke-width="2.5" stroke-linecap="round"/>
  <path d="M28 4 L28 44" stroke="currentColor" stroke-width="2.5" stroke-linecap="round"/>
  
  <rect x="18" y="6" width="4" height="3" fill="currentColor"/>
  <rect x="26" y="6" width="4" height="3" fill="currentColor"/>
  <rect x="18" y="12" width="4" height="3" fill="currentColor"/>
  <rect x="26" y="12" width="4" height="3" fill="currentColor"/>
  <rect x="18" y="18" width="4" height="3" fill="currentColor"/>
  <rect x="26" y="18" width="4" height="3" fill="currentColor"/>
  
  <circle cx="24" cy="30" r="6" fill="currentColor"/>
  <path d="M24 36 L24 42" stroke="currentColor" stroke-width="3" stroke-linecap="round"/>
  </symbol>
  <symbol id="playnite" viewBox="0 0 48 48">
    <rect x="4" y="28" width="40" height="16" rx="2" stroke="currentColor" stroke-width="2.5" fill="currentColor" opacity="0.1"/>
  
  <rect x="6" y="12" width="8" height="16" rx="1" fill="currentColor" opacity="0.5" stroke="currentColor" stroke-width="2"/>
  <rect x="16" y="8" width="8" height="20" rx="1" fill="currentColor" opacity="0.6" stroke="currentColor" stroke-width="2"/>
  <rect x="26" y="14" width="8" height="14" rx="1" fill="currentColor" opacity="0.5" stroke="currentColor" stroke-width="2"/>
  <rect x="36" y="10" width="8" height="18" rx="1" fill="currentColor" opacity="0.6" stroke="currentColor" stroke-width="2"/>
  
  <path d="M19 14 L19 22 L25 18 Z" fill="white" opacity="0.9"/>
  </symbol>
  <symbol id="powertoys" viewBox="0 0 48 48">
    <path d="M18 8 L30 8 L28 18 L32 18 L20 40 L22 26 L18 26 Z" fill="currentColor" stroke="currentColor" stroke-width="2" stroke-linejoin="round"/>
  <circle cx="10" cy="14" r="6" stroke="currentColor" stroke-width="2.5" fill="none"/>
  <path d="M14 18 L20 24" stroke="currentColor" stroke-width="2.5" stroke-linecap="round"/>
  </symbol>
  <symbol id="prism" viewBox="0 0 48 48">
    <path d="M8 34 L24 8 L40 34 Z" fill="currentColor" opacity="0.2" stroke="currentColor" stroke-width="2.5" stroke-linejoin="round"/>
  
  <path d="M24 8 L24 2" stroke="#ff4444" stroke-width="2" opacity="0.7"/>
  <path d="M40 34 L44 36" stroke="#ff4444" stroke-width="2" opacity="0.7"/>
  <path d="M40 34 L44 34" stroke="#44ff44" stroke-width="2" opacity="0.7"/>
  <path d="M40 34 L44 32" stroke="#4444ff" stroke-width="2" opacity="0.7"/>
  </symbol>
  <symbol id="rainmeter" viewBox="0 0 24 24">
    <path d="M12 2l-5.5 9h3v9l5.5-9h-3v-9z"/>
  <path d="M6 4l-3 5h2v7l3-5H6V4z" opacity="0.6"/>
  <path d="M18 4l3 5h-2v7l-3-5h2V4z" opacity="0.6"/>
  </symbol>
  <symbol id="revo" viewBox="0 0 48 48">
    <circle cx="24" cy="24" r="18" stroke="currentColor" stroke-width="2.5" fill="none"/>
  <circle cx="24" cy="24" r="12" stroke="currentColor" stroke-width="2.5" fill="none"/>
  <circle cx="24" cy="24" r="4" fill="currentColor"/>
  <path d="M24 6 L24 2" stroke="currentColor" stroke-width="2.5" stroke-linecap="round"/>
  <path d="M24 46 L24 42" stroke="currentColor" stroke-width="2.5" stroke-linecap="round"/>
  <path d="M42 24 L46 24" stroke="currentColor" stroke-width="2.5" stroke-linecap="round"/>
  <path d="M2 24 L6 24" stroke="currentColor" stroke-width="2.5" stroke-linecap="round"/>
  </symbol>
  <symbol id="rtss" viewBox="0 0 24 24">
    <path d="M3 3v18h18V3H3zm16 16H5V5h14v14z"/>
  <path d="M7 17h2V7H7v10zm4 0h2v-6h-2v6zm4 0h2V9h-2v8z"/>
  <text x="12" y="21" font-size="4" font-family="monospace" text-anchor="middle" fill="currentColor">FPS</text>
  </symbol>
  <symbol id="signalrgb" viewBox="0 0 48 48">
    <path d="M24 24 L24 40" stroke="currentColor" stroke-width="2.5" stroke-linecap="round"/>
  
  <path d="M16 20 Q12 24 16 28" stroke="#ff4444" stroke-width="3" fill="none" stroke-linecap="round" opacity="0.8"/>
  <path d="M10 16 Q4 24 10 32" stroke="#44ff44" stroke-width="3" fill="none" stroke-linecap="round" opacity="0.8"/>
  <path d="M6 12 Q-2 24 6 36" stroke="#4444ff" stroke-width="3" fill="none" stroke-linecap="round" opacity="0.8"/>
  <path d="M32 20 Q36 24 32 28" stroke="#ff4444" stroke-width="3" fill="none" stroke-linecap="round" opacity="0.8"/>
  <path d="M38 16 Q44 24 38 32" stroke="#44ff44" stroke-width="3" fill="none" stroke-linecap="round" opacity="0.8"/>
  <path d="M42 12 Q50 24 42 36" stroke="#4444ff" stroke-width="3" fill="none" stroke-linecap="round" opacity="0.8"/>
  <circle cx="24" cy="24" r="4" fill="currentColor"/>
  </symbol>
  <symbol id="steamlink" viewBox="0 0 24 24">
    <path d="M12 2C6.48 2 2 6.48 2 12s4.48 10 10 10 10-4.48 10-10S17.52 2 12 2zm0 18c-4.41 0-8-3.59-8-8s3.59-8 8-8 8 3.59 8 8-3.59 8-8 8z"/>
  <path d="M12 6c-3.31 0-6 2.69-6 6l4.5 1.8c.24-.11.52-.18.8-.18.09 0 .18 0 .26.02l2.14-3.1v-.04c0-1.66 1.34-3 3-3s3 1.34 3 3-1.34 3-3 3h-.07l-3.05 2.18c0 .08.02.16.02.24 0 1.24-1.01 2.25-2.25 2.25s-2.25-1.01-2.25-2.25c0-.07 0-.14.01-.2L6 14.5c0 3.31 2.69 6 6 6s6-2.69 6-6-2.69-6-6-6z"/>
  </symbol>
  <symbol id="sunshine" viewBox="0 0 24 24">
    <circle cx="12" cy="12" r="5"/>
  <path d="M12 1v3M12 20v3M4.22 4.22l2.12 2.12M17.66 17.66l2.12 2.12M1 12h3M20 12h3M4.22 19.78l2.12-2.12M17.66 6.34l2.12-2.12"/>
  <path fill="none" stroke="currentColor" stroke-width="2" stroke-linecap="round" d="M12 1v3M12 20v3M4.22 4.22l2.12 2.12M17.66 17.66l2.12 2.12M1 12h3M20 12h3M4.22 19.78l2.12-2.12M17.66 6.34l2.12-2.12"/>
  </symbol>
  <symbol id="sysinternals" viewBox="0 0 24 24">
    <rect x="3" y="3" width="8" height="8" rx="1" fill="none" stroke="currentColor" stroke-width="2"/>
  <rect x="13" y="3" width="8" height="8" rx="1" fill="none" stroke="currentColor" stroke-width="2"/>
  <rect x="3" y="13" width="8" height="8" rx="1" fill="none" stroke="currentColor" stroke-width="2"/>
  <rect x="13" y="13" width="8" height="8" rx="1" fill="none" stroke="currentColor" stroke-width="2"/>
  <circle cx="7" cy="7" r="2"/>
  <circle cx="17" cy="7" r="2"/>
  <circle cx="7" cy="17" r="2"/>
  <circle cx="17" cy="17" r="2"/>
  </symbol>
  <symbol id="torbrowser" viewBox="0 0 24 24">
    <circle cx="12" cy="12" r="10" fill="none" stroke="currentColor" stroke-width="2"/>
  <circle cx="12" cy="12" r="6" fill="none" stroke="currentColor" stroke-width="2"/>
  <circle cx="12" cy="12" r="3" fill="none" stroke="currentColor" stroke-width="2"/>
  <circle cx="12" cy="12" r="1"/>
  </symbol>
  <symbol id="unigine-heaven" viewBox="0 0 24 24">
    <path d="M12 2L2 7l10 5 10-5-10-5z"/>
  <path d="M2 17l10 5 10-5M2 12l10 5 10-5" fill="none" stroke="currentColor" stroke-width="2"/>
  <circle cx="12" cy="7" r="2" fill="none" stroke="currentColor" stroke-width="1.5"/>
  </symbol>
  <symbol id="unigine-superposition" viewBox="0 0 24 24">
    <circle cx="12" cy="12" r="10" fill="none" stroke="currentColor" stroke-width="2"/>
  <circle cx="12" cy="12" r="6" fill="none" stroke="currentColor" stroke-width="2"/>
  <circle cx="12" cy="12" r="2"/>
  <path d="M12 2v4M12 18v4M2 12h4M18 12h4" stroke="currentColor" stroke-width="1.5" stroke-linecap="round"/>
  </symbol>
  <symbol id="unigine-valley" viewBox="0 0 24 24">
    <path d="M3 20l4-8 4 4 4-6 6 10H3z"/>
  <circle cx="17" cy="6" r="2"/>
  <path d="M2 20h20" stroke="currentColor" stroke-width="2" stroke-linecap="round"/>
  </symbol>
  <symbol id="vcredist" viewBox="0 0 48 48">
    <rect x="4" y="4" width="40" height="40" rx="2" stroke="currentColor" stroke-width="2.5" fill="currentColor" opacity="0.1"/>
  
  <path d="M24 4 L24 44 M4 24 L44 24" stroke="currentColor" stroke-width="2.5" opacity="0.3"/>
  
  <g transform="translate(24, 24)">
    <text x="0" y="0" font-family="monospace" font-size="16" font-weight="bold" fill="currentColor" text-anchor="middle" dominant-baseline="middle">C++</text>
  </g>
  
  <rect x="6" y="6" width="8" height="8" fill="currentColor" opacity="0.6"/>
  </symbol>
  <symbol id="voicemeeter" viewBox="0 0 48 48">
    <rect x="4" y="4" width="40" height="40" rx="4" stroke="currentColor" stroke-width="2.5" fill="none"/>
  
  <path d="M12 36 L12 12" stroke="currentColor" stroke-width="2"/>
  <rect x="9" y="18" width="6" height="10" rx="1" fill="currentColor"/>
  
  <path d="M24 36 L24 12" stroke="currentColor" stroke-width="2"/>
  <rect x="21" y="24" width="6" height="10" rx="1" fill="currentColor"/>
  
  <path d="M36 36 L36 12" stroke="currentColor" stroke-width="2"/>
  <rect x="33" y="14" width="6" height="10" rx="1" fill="currentColor"/>
  </symbol>
  <symbol id="vscode" viewBox="0 0 24 24">
    <path d="M17.5 2L9 10.5 4.5 7l-2 1.5v7l2 1.5 4.5-3.5L17.5 22l4-2V4l-4-2zm0 3.5v13L10.5 12l7-6.5z"/>
  </symbol>
  <symbol id="webview2" viewBox="0 0 48 48">
    <rect x="6" y="10" width="36" height="28" rx="3" stroke="currentColor" stroke-width="2.5" fill="none"/>
  <path d="M6 18 L42 18" stroke="currentColor" stroke-width="2.5"/>
  <circle cx="12" cy="14" r="1.5" fill="currentColor"/>
  <circle cx="17" cy="14" r="1.5" fill="currentColor"/>
  <circle cx="22" cy="14" r="1.5" fill="currentColor"/>
  
  <path d="M14 26 Q18 22 24 26 Q30 30 36 26" stroke="currentColor" stroke-width="2.5" fill="none" stroke-linecap="round"/>
  <path d="M14 32 Q20 28 24 32" stroke="currentColor" stroke-width="2" fill="none" stroke-linecap="round" opacity="0.5"/>
  </symbol>
  <symbol id="windirstat" viewBox="0 0 48 48">
    <rect x="4" y="4" width="40" height="40" stroke="currentColor" stroke-width="2.5" fill="none" rx="2"/>
  <rect x="4" y="4" width="24" height="18" fill="currentColor" opacity="0.3"/>
  <rect x="30" y="4" width="14" height="18" fill="currentColor" opacity="0.5"/>
  <rect x="4" y="24" width="16" height="20" fill="currentColor" opacity="0.4"/>
  <rect x="22" y="24" width="22" height="10" fill="currentColor" opacity="0.6"/>
  <rect x="22" y="36" width="22" height="8" fill="currentColor" opacity="0.35"/>
  <path d="M4 22 L44 22" stroke="currentColor" stroke-width="2.5"/>
  <path d="M28 4 L28 22" stroke="currentColor" stroke-width="2.5"/>
  <path d="M20 24 L20 44" stroke="currentColor" stroke-width="2.5"/>
  <path d="M22 34 L44 34" stroke="currentColor" stroke-width="2.5"/>
  </symbol>
  <symbol id="windowsterminal" viewBox="0 0 48 48">
    <rect x="6" y="8" width="36" height="32" rx="3" stroke="currentColor" stroke-width="2.5" fill="none"/>
  <path d="M6 16h36" stroke="currentColor" stroke-width="2.5"/>
  <path d="M14 26l6 4-6 4" stroke="currentColor" stroke-width="2.5" stroke-linecap="round" stroke-linejoin="round" fill="none"/>
  <path d="M24 34h10" stroke="currentColor" stroke-width="2.5" stroke-linecap="round"/>
  <circle cx="12" cy="12" r="1.5" fill="currentColor"/>
  <circle cx="18" cy="12" r="1.5" fill="currentColor"/>
  <circle cx="24" cy="12" r="1.5" fill="currentColor"/>
  </symbol>
  <symbol id="winrar" viewBox="0 0 48 48">
    <path d="M8 14 L8 42 L32 42 L32 14 Z" fill="currentColor" opacity="0.3" stroke="currentColor" stroke-width="2.5" stroke-linejoin="round"/>
  <path d="M12 10 L12 38 L36 38 L36 10 Z" fill="currentColor" opacity="0.5" stroke="currentColor" stroke-width="2.5" stroke-linejoin="round"/>
  <path d="M16 6 L16 34 L40 34 L40 6 Z" fill="none" stroke="currentColor" stroke-width="2.5" stroke-linejoin="round"/>
  
  <text x="24" y="22" font-family="monospace" font-size="10" font-weight="bold" fill="currentColor" text-anchor="middle">RAR</text>
  </symbol>
  <symbol id="wiztree" viewBox="0 0 48 48">
    <path d="M24 4 L24 44" stroke="currentColor" stroke-width="2.5" stroke-linecap="round"/>
  <path d="M24 12 L34 12" stroke="currentColor" stroke-width="2.5" stroke-linecap="round"/>
  <path d="M24 20 L38 20" stroke="currentColor" stroke-width="2.5" stroke-linecap="round"/>
  <path d="M24 28 L32 28" stroke="currentColor" stroke-width="2.5" stroke-linecap="round"/>
  <path d="M24 36 L36 36" stroke="currentColor" stroke-width="2.5" stroke-linecap="round"/>
  <circle cx="34" cy="12" r="2.5" fill="currentColor"/>
  <circle cx="38" cy="20" r="2.5" fill="currentColor"/>
  <circle cx="32" cy="28" r="2.5" fill="currentColor"/>
  <circle cx="36" cy="36" r="2.5" fill="currentColor"/>
  <path d="M14 12 L24 12" stroke="currentColor" stroke-width="2.5" stroke-linecap="round"/>
  <path d="M10 20 L24 20" stroke="currentColor" stroke-width="2.5" stroke-linecap="round"/>
  <circle cx="14" cy="12" r="2.5" fill="currentColor"/>
  <circle cx="10" cy="20" r="2.5" fill="currentColor"/>
  </symbol>
  <symbol id="wootility" viewBox="0 0 48 48">
    <rect x="8" y="12" width="32" height="24" rx="4" stroke="currentColor" stroke-width="2.5" fill="currentColor" opacity="0.2"/>
  
  <path d="M12 32 L16 20 L20 32 L24 16 L28 32 L32 20 L36 32" stroke="currentColor" stroke-width="2" fill="none" opacity="0.5"/>
  
  <text x="24" y="22" font-family="Arial, sans-serif" font-size="14" font-weight="bold" fill="currentColor" text-anchor="middle">W</text>
  </symbol>
  <symbol id="xbox" viewBox="0 0 24 24">
    <path d="M4.102 21.033C6.211 22.881 8.977 24 12 24c3.026 0 5.789-1.119 7.902-2.967 1.877-1.912-4.316-8.709-7.902-11.417-3.582 2.708-9.779 9.505-7.898 11.417zm11.16-14.406c2.5 2.961 7.484 10.313 6.076 12.912C23.025 17.36 24 14.802 24 12c0-4.143-2.111-7.793-5.316-9.937-.717-.478-1.752-.122-1.897.792-.144.916.406 1.9.475 3.772zM3.576 2.063C.371 4.207-1.74 7.857-1.74 12c0 2.802.975 5.36 2.662 7.539-1.408-2.599 3.576-9.951 6.076-12.912.069-1.872.619-2.856.475-3.772-.145-.914-1.18-1.27-1.897-.792z"/>
  </symbol>
</svg>
