<svg xmlns="http://www.w3.org/2000/svg" viewBox="0 0 24 24" fill="currentColor">
  <path d="M12 2C6.48 2 2 6.48 2 12s4.48 10 10 10 10-4.48 10-10S17.52 2 12 2zm0 18c-4.41 0-8-3.59-8-8s3.59-8 8-8 8 3.59 8 8-3.59 8-8 8z"/>
  <path d="M12 6c-3.31 0-6 2.69-6 6l4.5 1.8c.24-.11.52-.18.8-.18.09 0 .18 0 .26.02l2.14-3.1v-.04c0-1.66 1.34-3 3-3s3 1.34 3 3-1.34 3-3 3h-.07l-3.05 2.18c0 .08.02.16.02.24 0 1.24-1.01 2.25-2.25 2.25s-2.25-1.01-2.25-2.25c0-.07 0-.14.01-.2L6 14.5c0 3.31 2.69 6 6 6s6-2.69 6-6-2.69-6-6-6z"/>
</svg>

