<svg xmlns="http://www.w3.org/2000/svg" viewBox="0 0 24 24" fill="currentColor">
  <path d="M4.102 21.033C6.211 22.881 8.977 24 12 24c3.026 0 5.789-1.119 7.902-2.967 1.877-1.912-4.316-8.709-7.902-11.417-3.582 2.708-9.779 9.505-7.898 11.417zm11.16-14.406c2.5 2.961 7.484 10.313 6.076 12.912C23.025 17.36 24 14.802 24 12c0-4.143-2.111-7.793-5.316-9.937-.717-.478-1.752-.122-1.897.792-.144.916.406 1.9.475 3.772zM3.576 2.063C.371 4.207-1.74 7.857-1.74 12c0 2.802.975 5.36 2.662 7.539-1.408-2.599 3.576-9.951 6.076-12.912.069-1.872.619-2.856.475-3.772-.145-.914-1.18-1.27-1.897-.792z"/>
</svg>
